#define battery_empty_width 24
#define battery_empty_height 11
static unsigned char battery_empty_bits[] = {
   0xf8, 0xff, 0x1f, 0x04, 0x00, 0x20, 0x04, 0xc3, 0xe0, 0x04, 0x66, 0xe0,
   0x04, 0x3c, 0xe0, 0x04, 0x18, 0xe0, 0x04, 0x3c, 0xe0, 0x04, 0x66, 0xe0,
   0x04, 0xc3, 0xe0, 0x04, 0x00, 0x20, 0xf8, 0xff, 0x1f };
