#define battery_width 24
#define battery_height 11
static unsigned char battery_bits[] = {
   0xfc, 0xff, 0x1f, 0x02, 0x00, 0x20, 0x02, 0x00, 0xe0, 0x02, 0x00, 0xe0,
   0x02, 0x00, 0xe0, 0x02, 0x00, 0xe0, 0x02, 0x00, 0xe0, 0x02, 0x00, 0xe0,
   0x02, 0x00, 0xe0, 0x02, 0x00, 0x20, 0xfc, 0xff, 0x1f };
