#define battery_empty2_width 24
#define battery_empty2_height 11
static unsigned char battery_empty2_bits[] = {
   0x7c, 0xfc, 0x1f, 0xc2, 0x00, 0x20, 0x82, 0x01, 0xe0, 0x02, 0x03, 0xe0,
   0x02, 0x06, 0xe0, 0x02, 0x0c, 0xe0, 0x02, 0x18, 0xe0, 0x02, 0x30, 0xe0,
   0x02, 0x60, 0xe0, 0x02, 0xc0, 0x20, 0xfc, 0xff, 0x19 };
